<svg id="Layer_1" data-name="Layer 1" xmlns="http://www.w3.org/2000/svg" viewBox="0 0 1080 1080"><defs><style>.cls-1,.cls-2,.cls-4{fill:#0a6f3c;}.cls-1,.cls-2,.cls-3,.cls-4{stroke:#000;stroke-linecap:round;stroke-linejoin:round;stroke-width:4px;}.cls-1{opacity:0;}.cls-2{opacity:0.3;}.cls-3{fill:#422814;}</style></defs><path class="cls-1" d="M383,792c-55,40-130.59,25.26-140-41-47,4-80-35-79.71-62.93-36.84-2.11-68.42-40-44.21-84.2-34.73-13.68-41-73.67-18.94-92.62C77,503.88,61,444.57,102,422c-33.14-26.63-31-90,11.82-109.67C93,271,117,215,159.08,209.19,155.92,159.72,185,127,231.7,132.36,226,98,262.22,60.79,312.74,65,326.42,28.16,374.83,7.11,419,35.53,436.93,4,488.08-5.9,517,25c31.08-30.9,75.7-27.36,99.9,7.37C646-4,700-1,729.52,46.38,764.25,22.9,813,45,812.66,91.31c41.05-8.42,88.41,6.32,91.57,64.2C953,151,983.17,196.56,963.17,246,1006,249,1029,321,1003,360c28,34,14.9,101.78-24,127,21,28,19,87-35.79,109C960,655.44,921,694,882,696c-2.32,35.78-55,78-96.7,50-.3,41-60.3,68-91.57,45.26C690,823,620,845,588.49,821.54,551,856,419,873,383,792Z"/><path class="cls-2" d="M337,787c-78,41-224-62-198-146-75-16-95-156-36-193-52-44-49-166,38-196C112,174,199,84,274,94,284,24,415-11,470,37c63-49,150-43,208.53.14C730-6,862,32,865,121c78-7,156,110,129,179,65,39,60.62,205.07-13.69,247C1014,618,943,729,846.24,729.11,846,803,724,864,649.9,812.72,584,880,376,873,337,787Z"/><path class="cls-3" d="M422.2,729.11c-32.63-76.83-135.77-181-220-226.28,17.61-7.54,51.57-6.31,62.09-3.16l-4.21-1.05S245.38,431.26,241.17,366c90.51,162.08,147.35,216.81,202.08,269.43"/><path class="cls-4" d="M786.37,610.42c-4.23-22.34-15.8-46.55-27.38-63.38,20,3.15,35.78,13.68,45.25,29.46,37.89-3.15,58.94,1.06,77.89,8.42C844.24,591.24,819,597.55,786.37,610.42Z"/><path class="cls-3" d="M284.1,1085C358,1026,389,981,401,872c17.58-159.69,15.93-280.76,39.52-380,24.09-101.32,48-156.52,32.19-223.88s-41-126.3-41-126.3,44.2,21,98.93,93.67c1.85-1.2-11.27,7.51-9.47,6.32,18.66-12.35,50.13-34.11,78.93-49.47,31.58-16.84,49.47-45.26,69.47-91.57,6.6,16.88,9.47,41.05,9.47,53.68v-7.37s29.47-6.31,50.52-16.84c-34.73,53.68-56.83,65.26-92.62,94.73s-69.46,133.66-70.52,191.55-6.31,138.93-15.78,223.12S530.64,816.28,558,911c27.77,96.14,39.71,99.27,91.93,174"/><path class="cls-4" d="M328.86,230.65c-5.6-21.46-11.91-33-25.59-52,14.73,3.16,24.2,5.26,33.67,17.89,25.26-15.79,53.15-20.52,75.78-15.79C369.57,196.56,355.89,207.08,328.86,230.65Z"/><path class="cls-3" d="M676.9,564.93c54.72-71.57,171.55-144.19,266.27-187.34-64.2,0-88.41,13.68-88.41,13.68l-1,6.31c.81-13.85,2.14-56.85-3.16-81-23,20.39-51.42,79.74-57.88,93.67l4.21-9.47c-92.62,48.41-164.19,118.93-187.34,158.92"/><path class="cls-3" d="M532.71,706c81-63.15,148.39-106.3,293.64-45.26-45.26-91.56-117.88-98.93-181-103.14s-101,25.26-101,25.26"/><path class="cls-3" d="M465.35,432.32c-77.89-76.84-80-94.73-96.83-122.09s-45.26-46.31-66.31-111.56c30.2,28.52,59.84,67.44,68.41,78.93l-2.1-3.16s-1-10.52,8.42-42.1c32.63,83.15,106.3,143.14,106.3,143.14"/><path class="cls-4" d="M737.13,447.92s-20.21-9.09-43.28-11.15a231.48,231.48,0,0,0-44,.55s2.61-15.46,20.76-23.93,38.66-6.64,38.66-6.64S705.16,387.31,729,362s59.42-30.58,59.42-30.58-21.86,21.6-34.3,50.21S737.13,447.92,737.13,447.92Z"/><path class="cls-4" d="M613.08,189.91c-22.49-14.4-54.06-28.08-78.27-32.29,17.89-10.53,36.84-12.63,56.83-5.26-1-29.47,28.42-61.05,41.05-68.41C622.17,112.36,612.69,147.09,613.08,189.91Z"/><path class="cls-4" d="M328.91,514.87c-5.43-25.61-20.55-61.67-29.85-75.63,24.2,3.6,33.51,16.51,44,29.3,27.92-16.28,49.08-22.32,88.63-15.34C389.79,468.32,364.2,483.44,328.91,514.87Z"/></svg>