<?xml version="1.0" encoding="utf-8"?>
<!-- Generator: Adobe Illustrator 27.1.1, SVG Export Plug-In . SVG Version: 6.00 Build 0)  -->
<svg version="1.1" id="Layer_1" xmlns="http://www.w3.org/2000/svg" xmlns:xlink="http://www.w3.org/1999/xlink" x="0px" y="0px"
	 viewBox="0 0 120.3 75.3" style="enable-background:new 0 0 120.3 75.3;" xml:space="preserve">
<style type="text/css">
	.st0{fill:#2E358F;}
	.st1{fill:#EC2026;}
</style>
<circle class="st0" cx="58.7" cy="7.2" r="7.2"/>
<polygon class="st0" points="40.7,19 26.4,34.9 40.7,34.9 54.9,34.9 "/>
<polygon class="st0" points="78.2,39 83.8,45.9 104.9,45.9 97.8,39 "/>
<path class="st0" d="M52.6,52.7c-8.8,12.9-17.7,22.7-31.8,22.7S0,69.4,0,69.4l5.3-7.9c0,0,8.7,5.2,15.5,5.2
	c13.4-0.1,22-14.1,22-14.1H52.6z"/>
<ellipse class="st1" cx="40.7" cy="44" rx="21.4" ry="5.4"/>
<polygon class="st1" points="53.4,19.6 61.1,29 88.4,29 77.9,19.6 "/>
<path class="st1" d="M62.3,39c0,0,9.8,14.6,15.5,22.3s9.9,14.3,23.2,14.3c11.1,0,19.2-6.6,19.2-6.6l-4.7-6.5c0,0-6.2,4.6-14.6,4.6
	c-7.4,0-9.7-3.2-14.6-9.8S73.6,39,73.6,39H62.3z"/>
</svg>
