<?xml version="1.0" encoding="utf-8"?>
<!-- Generator: Adobe Illustrator 27.0.0, SVG Export Plug-In . SVG Version: 6.00 Build 0)  -->
<svg version="1.1" id="Layer_1" xmlns="http://www.w3.org/2000/svg" xmlns:xlink="http://www.w3.org/1999/xlink" x="0px" y="0px"
	 viewBox="0 0 595.3 841.9" style="enable-background:new 0 0 595.3 841.9;" xml:space="preserve">
<g>
	<g>
		<path d="M35.1,283.5c10-18.1,31.2-26.2,51.1-25.9c24.2,0.3,46.1,13.4,64.8,27.6c19.8,15,37.5,32.8,58.8,45.8
			c21.5,13.1,45.8,19.2,70.9,18.8c52.9-0.9,100.8-25.9,148.7-45.3c24.9-10.1,50.8-19.2,77.6-22.4c13.2-1.6,26.6-1.8,39.7,0.2
			c3,0.4,6,1,9,1.6c2.4,0.5,6.2,0.9,7.6,3.2c1.6,2.7-1.1,6.4-2.8,8.4c-2.1,2.6-4.4,5.1-6.7,7.5c-33.8,36.4-78.2,61.3-111.2,98.5
			c-15.3,17.2-28.5,36.9-35.6,59c-3.5,10.9-5.5,22.4-5.5,33.8c0,12.5,2.6,24.9,6.4,36.8c8,24.7,21.4,47.3,30,71.8
			c8.3,23.6,12.9,50.7,1.3,74c-10.1,20.4-29.5,34.1-49.3,44.1c-23.3,11.8-48.6,19.9-74.3,24.5c-27.2,4.8-54.6,4.8-82.1,2.6
			c-27.9-2.2-55.8-6-83.9-5.6c-40.8,0.5-86.1,12.3-113.2,45c-6.1,7.4-11,15.7-14.5,24.7c-0.7,1.8,1.4,3.6,3.1,3.1
			c33.4-10.6,68.4-14.2,103.4-13.9c35.3,0.2,70.4,4.2,105.3,8.5c34.3,4.3,68.7,8.8,103.3,10.5c33.9,1.7,68.2,0.6,101.6-6.3
			c16.4-3.4,32-8.6,47.7-14.5c13.9-5.3,30.1-11.5,45.2-7.7c3.6,0.9,6.9,2.4,10,4.5c1.4,0.9,3.2,0,3.7-1.5
			c13.3-45.2,27.4-95.6,7-140.9c-7.8-17.2-20.2-32.9-36.7-42.4c-8.8-5.1-18.6-8.1-28.7-9c-12.8-1.2-25.6,0.7-38.2,2.8
			c-52.3,9-104.6,18.7-157.8,20.9c-47.5,2-95.5-2-141-16.5c-21.5-6.9-42.3-16.1-61.5-27.9c-9.6-5.9-18.9-12.4-27.4-19.8
			c-8.2-7.1-15.7-15.2-20.4-25C30.2,515.9,38.7,492,55.1,477c16.5-15.2,39.2-22.3,60.9-25.6c45.9-7.1,92.4,2.6,138.5-1
			c11.2-0.9,22.4-2.6,33.3-5.4c9.6-2.5,20.2-5.6,27.9-12.1c6.6-5.5,9.5-14.7,4.2-22.1c-4.9-6.8-14.1-9.5-21.9-10.8
			c-11.8-2-23.8-2.9-35.7-4.4c-12.8-1.5-25.6-3.1-38.3-5.1c-24.9-3.7-49.8-8.6-73.8-16.4c-39.6-12.8-77.8-34.4-104.1-67.2
			c-6.3-7.9-11.8-16.4-16.4-25.4c-1.5-2.9-5.8-0.3-4.3,2.5c18.8,36.9,52.4,63.9,89.3,81.4c43.6,20.7,91.8,28.2,139.3,34.1
			c12.5,1.5,25,3,37.5,4.5c8,1,18.4,2.3,23.9,9c6.8,8.2-2.1,16.5-9.3,20.2c-9.8,5-21.2,7.7-31.9,9.7c-45.4,8.3-91.7-1-137.4,1.5
			c-22.2,1.2-44.7,5.2-64.7,15.2c-19.2,9.6-35.9,26.1-40.2,47.8c-2.1,10.4-1,20.9,3.3,30.6c4.3,9.8,11.4,18.1,19.2,25.2
			c16.3,14.9,35.7,26.8,55.6,36.3c40.6,19.4,85.3,28.9,130.1,31.5c52.1,3,104.3-3.2,155.6-11.6c13.2-2.1,26.3-4.4,39.5-6.8
			c12.8-2.3,25.6-5,38.6-5.5c11.4-0.5,22.9,1,33.3,5.8c8.5,3.9,16.1,9.6,22.6,16.4c13.4,14.1,22,32.7,25.5,51.7
			c4.6,25.1,0.8,51.2-5.1,75.8c-2.9,12.3-6.5,24.4-10,36.5c1.2-0.5,2.4-1,3.7-1.5c-13-8.5-28.8-6.9-43-2.7
			c-15.8,4.6-30.7,11.5-46.6,15.9c-33.5,9.2-68.4,11.7-103.1,10.8c-34.9-0.9-69.6-5-104.1-9.4c-35.3-4.5-70.7-8.9-106.3-10
			c-35-1.1-70.3,1.2-104.2,10.1c-4.3,1.1-8.6,2.4-12.9,3.7c1,1,2.1,2.1,3.1,3.1c15.5-39.8,59.4-59.6,99.3-64.5
			c26.9-3.3,54.3-0.8,81.1,1.8c27.9,2.6,55.9,5.4,84,3c26.7-2.2,53.1-8.3,78-18c21.8-8.5,43.9-19.4,60.3-36.5
			c7.7-8.1,13.9-17.6,17.6-28.2c4.1-11.9,4.9-24.7,3.4-37.2c-3-26-14.6-49.5-25.3-73c-10.8-23.6-20.6-48.5-18.4-74.9
			c1.9-23.5,12.4-45.5,26-64.4c29.4-40.9,73.8-66.8,110.2-100.7c4.7-4.4,9.3-8.9,13.6-13.5c4-4.2,9-8.8,11.2-14.3
			c5.4-13.7-14.9-15-23.4-16c-26.3-3.3-53,1.4-78.2,9c-51.6,15.6-98.5,44.2-151.7,55c-25.3,5.1-51.9,5.9-76.7-2.3
			c-24.5-8.1-44.4-24.8-63.8-41.1c-18.8-15.8-38.4-32-62-40.1c-19.9-6.9-42.5-6.7-61.1,3.8c-8.4,4.7-15.4,11.5-20.1,19.9
			C29.2,283.8,33.5,286.3,35.1,283.5L35.1,283.5z"/>
	</g>
</g>
</svg>
