<svg id="Layer_1" data-name="Layer 1" xmlns="http://www.w3.org/2000/svg" viewBox="0 0 1560 1080"><defs><style>.cls-1{fill:#422814;stroke-linecap:round;stroke-linejoin:round;}.cls-1,.cls-2{stroke:#000;stroke-width:5px;}.cls-2{fill:#0a6f3c;stroke-miterlimit:10;}.cls-3{font-size:64px;font-family:ArialMT, Arial;}</style></defs><path class="cls-1" d="M831.89,832.63c-37.54,1-116.14,10.66-175.17,3.13-98-12.52-111.54-1.43-200.27-80.7-2.69-2.52-5.36-5-8-7.41l-.29-.27v0c-43.35-39.61-66.93-59.45-92.78-96.2s-30-86,15.64-110.52c83.42-44.84,125.27-24.16,234.61-42.75C709.9,480.2,799.57,384.28,799.57,384.28s-119.05,44.64-203.33,57.34c-71.58,10.79-147.53,5.93-204.36,10.43-44.89,3.56-123,30.24-162.66,31.28s-78.2-6.26-107.4-63.6c-37.31-73.3-34.68-122-9.38-178.3,22.94-51.09,68.82-86.54,109.48-89.67s142.9,19.52,188.73,21.89c60.47,3.13,98-12.51,153.27-53.17,0,0-59.43,18.77-107.4,15.64s-151.18-49-213.75-45.88-136.59-2.08-196,108.44-40.66,201.24-25,257.54S133.29,626.18,215.67,695s143.88,136.6,153.27,183.52-34.41,146-114.7,207.49H517s22.38-46.36,36.49-99c33.37-66.74,40.4-75.8,103.23-80.29,73-5.21,123-14.6,182.47-29.2,64.71-15.89,181.42-82.37,181.42-82.37S869.43,831.59,831.89,832.63Z"/><path class="cls-2" d="M702.39,436.19s-23.84-27.65-56.83-46.8a382.4,382.4,0,0,0-66-29.78s14.67-21.27,47.66-21.27,62.33,17,62.33,17,7.34-31.91,60.5-53.18,110-4.26,110-4.26-47.66,17-86.16,51.06S702.39,436.19,702.39,436.19Z"/><path class="cls-2" d="M471.19,152.47s-24.25-31.32-59.75-54.83a458,458,0,0,0-71.87-38.18S358.35,39,395.79,42.64s69,24.53,69,24.53,11.53-32.31,74-48.53S664,26.34,664,26.34,608.18,38.75,561.08,69.83,471.19,152.47,471.19,152.47Z"/><path class="cls-2" d="M889.5,841.54s-31.65-27.86-74.16-45.83-84.43-26.78-84.43-26.78,16.85-24.06,58-26.68,79,13.34,79,13.34,7-34.91,71.88-62,137-13.34,137-13.34S1018.5,702.33,972.77,742,889.5,841.54,889.5,841.54Z"/><text class="cls-3" transform="translate(705.66 69.28)">Jij vertelt ons wat je wilt leren</text><path d="M938,291.18,925.8,245.36H932l7,30q1.13,4.73,1.93,9.38,1.76-7.35,2.07-8.47l8.72-30.94H959l6.56,23.19a122.4,122.4,0,0,1,3.56,16.22q.89-4.35,2.28-10l7.19-29.44h6.1l-12.57,45.82H966.3l-9.66-34.91q-1.21-4.38-1.43-5.38-.72,3.17-1.35,5.38l-9.72,34.91Z"/><path d="M989.67,251.83v-6.47h5.63v6.47Zm0,39.35V258h5.63v33.19Z"/><path d="M996.71,304.05l1.06-4.78a11.39,11.39,0,0,0,2.65.44,3,3,0,0,0,2.57-1.14c.56-.76.84-2.67.84-5.71V258h5.63v35c0,4.08-.54,6.93-1.6,8.53q-2,3.12-6.75,3.12A16.06,16.06,0,0,1,996.71,304.05Zm7.12-52.16v-6.53h5.63v6.53Z"/><path d="M1035.86,291.18V245.36h5.63V261.8a12.55,12.55,0,0,1,9.93-4.56,13.39,13.39,0,0,1,6.41,1.45,8.54,8.54,0,0,1,3.89,4,18.5,18.5,0,0,1,1.17,7.43v21h-5.62v-21c0-2.81-.61-4.85-1.83-6.14a6.8,6.8,0,0,0-5.17-1.92,9,9,0,0,0-4.7,1.3,7.37,7.37,0,0,0-3.15,3.51,16.31,16.31,0,0,0-.93,6.13v18.16Z"/><path d="M1069.36,274.58q0-9.21,5.13-13.65a15.42,15.42,0,0,1,10.43-3.69,14.87,14.87,0,0,1,11.19,4.48q4.35,4.48,4.35,12.39,0,6.4-1.93,10.08a13.53,13.53,0,0,1-5.59,5.7,16.24,16.24,0,0,1-8,2,14.9,14.9,0,0,1-11.26-4.47Q1069.36,283,1069.36,274.58Zm5.78,0q0,6.38,2.78,9.55a8.94,8.94,0,0,0,7,3.17,8.84,8.84,0,0,0,7-3.19q2.79-3.18,2.78-9.72,0-6.15-2.79-9.32a9.27,9.27,0,0,0-14,0Q1075.15,268.22,1075.14,274.58Z"/><path d="M1128.8,291.18V286.3a12.14,12.14,0,0,1-10.53,5.63,13.45,13.45,0,0,1-5.49-1.13A9.09,9.09,0,0,1,1109,288a10.52,10.52,0,0,1-1.73-4.17,28.3,28.3,0,0,1-.35-5.25V258h5.63v18.4a32.84,32.84,0,0,0,.34,5.94,6,6,0,0,0,2.25,3.49,7,7,0,0,0,4.25,1.26,9.29,9.29,0,0,0,4.75-1.29,7.22,7.22,0,0,0,3.14-3.54,17.57,17.57,0,0,0,.93-6.48V258h5.62v33.19Z"/><path d="M1164.17,291.18V287a10.31,10.31,0,0,1-9.28,4.94,13,13,0,0,1-7.29-2.19,14.43,14.43,0,0,1-5.16-6.11,21.12,21.12,0,0,1-1.83-9,23.47,23.47,0,0,1,1.66-9,13.05,13.05,0,0,1,5-6.21,13.32,13.32,0,0,1,7.4-2.15,11.15,11.15,0,0,1,5.35,1.26,11.32,11.32,0,0,1,3.81,3.3V245.36h5.59v45.82Zm-17.78-16.57q0,6.38,2.69,9.53a8.09,8.09,0,0,0,6.34,3.16,8,8,0,0,0,6.27-3c1.72-2,2.58-5.08,2.58-9.21q0-6.81-2.63-10a8.08,8.08,0,0,0-6.47-3.19,7.8,7.8,0,0,0-6.26,3.07Q1146.39,268,1146.39,274.61Z"/><path d="M1201,280.49l5.81.72a14.19,14.19,0,0,1-5.1,7.9,15.25,15.25,0,0,1-9.5,2.82q-7.28,0-11.54-4.49t-4.27-12.58q0-8.37,4.31-13a14.62,14.62,0,0,1,11.19-4.62,14.21,14.21,0,0,1,10.88,4.53q4.21,4.53,4.22,12.75c0,.33,0,.83,0,1.5h-24.75q.32,5.48,3.1,8.37a9.19,9.19,0,0,0,6.94,2.91,8.63,8.63,0,0,0,5.28-1.62A10.88,10.88,0,0,0,1201,280.49Zm-18.47-9.1H1201a11.23,11.23,0,0,0-2.13-6.28,8.63,8.63,0,0,0-7-3.25,8.93,8.93,0,0,0-6.51,2.6A10.23,10.23,0,0,0,1182.49,271.39Z"/><path d="M1213.83,291.18V258h5.06v4.72a11.93,11.93,0,0,1,10.57-5.47,13.82,13.82,0,0,1,5.51,1.08,8.76,8.76,0,0,1,3.77,2.82,11.08,11.08,0,0,1,1.75,4.16,32.14,32.14,0,0,1,.31,5.47v20.41h-5.63V271a15.1,15.1,0,0,0-.65-5.14,5.44,5.44,0,0,0-2.33-2.72,7.36,7.36,0,0,0-3.92-1,9.08,9.08,0,0,0-6.2,2.28c-1.74,1.53-2.61,4.41-2.61,8.66v18.13Z"/><path d="M1272.39,291.18h-5.22V245.36h5.63v16.35a11.13,11.13,0,0,1,9.09-4.47,14,14,0,0,1,5.8,1.23,12,12,0,0,1,4.5,3.47,16.83,16.83,0,0,1,2.77,5.39,22.49,22.49,0,0,1,1,6.75q0,8.54-4.22,13.19a13.23,13.23,0,0,1-10.13,4.66,10.58,10.58,0,0,1-9.22-4.91Zm-.06-16.85q0,6,1.63,8.63,2.65,4.34,7.18,4.34a8.11,8.11,0,0,0,6.38-3.2q2.68-3.21,2.69-9.55,0-6.49-2.58-9.59a7.84,7.84,0,0,0-6.24-3.1,8.07,8.07,0,0,0-6.37,3.21Q1272.34,268.27,1272.33,274.33Z"/><path d="M1302.83,251.83v-6.47h5.63v6.47Zm0,39.35V258h5.63v33.19Z"/><path d="M1309.86,304.05l1.06-4.78a11.46,11.46,0,0,0,2.66.44,3,3,0,0,0,2.56-1.14c.57-.76.85-2.67.85-5.71V258h5.62v35c0,4.08-.53,6.93-1.59,8.53q-2,3.12-6.75,3.12A16.18,16.18,0,0,1,1309.86,304.05Zm7.13-52.16v-6.53h5.62v6.53Z"/><path d="M1355.14,291.18,1345,258h5.81l5.28,19.15,2,7.13c.08-.35.66-2.64,1.72-6.84l5.28-19.44h5.78l5,19.25,1.66,6.34,1.9-6.4,5.69-19.19h5.47l-10.38,33.19h-5.84L1369,271.3l-1.28-5.66L1361,291.18Z"/><path d="M1416.89,287.08a21,21,0,0,1-6,3.75,17.41,17.41,0,0,1-6.21,1.1q-5.46,0-8.4-2.68a8.8,8.8,0,0,1-2.94-6.82,9.23,9.23,0,0,1,4-7.69,13.69,13.69,0,0,1,4-1.85,40.67,40.67,0,0,1,5-.84,51.17,51.17,0,0,0,10-1.94c0-.77,0-1.26,0-1.47,0-2.29-.54-3.9-1.6-4.84q-2.16-1.91-6.4-1.91-4,0-5.86,1.4a8.43,8.43,0,0,0-2.8,4.92l-5.5-.75a13.59,13.59,0,0,1,2.47-5.71,10.82,10.82,0,0,1,5-3.34,22.14,22.14,0,0,1,7.53-1.17,19.83,19.83,0,0,1,6.9,1,9.07,9.07,0,0,1,3.91,2.51,8.86,8.86,0,0,1,1.75,3.83,31.47,31.47,0,0,1,.28,5.19v7.5a79.36,79.36,0,0,0,.36,9.92,12.47,12.47,0,0,0,1.42,4H1418A11.93,11.93,0,0,1,1416.89,287.08Zm-.47-12.56a41.25,41.25,0,0,1-9.18,2.12,21.33,21.33,0,0,0-4.91,1.13,4.92,4.92,0,0,0-2.22,1.83A5,5,0,0,0,1401,286a7.35,7.35,0,0,0,5,1.5,11.6,11.6,0,0,0,5.78-1.42,8.78,8.78,0,0,0,3.72-3.89,13.69,13.69,0,0,0,.9-5.63Z"/><path d="M1443.11,286.14l.81,5a20.38,20.38,0,0,1-4.25.5,9.59,9.59,0,0,1-4.75-1,5.42,5.42,0,0,1-2.37-2.54c-.46-1.05-.69-3.27-.69-6.64v-19.1h-4.12V258h4.12v-8.22l5.6-3.38V258h5.65v4.37h-5.65v19.41a9.76,9.76,0,0,0,.29,3.09,2.35,2.35,0,0,0,1,1.1,3.76,3.76,0,0,0,1.92.4A17.61,17.61,0,0,0,1443.11,286.14Z"/><path d="M1459.24,304.05l1.06-4.78a11.38,11.38,0,0,0,2.66.44,3,3,0,0,0,2.56-1.14c.56-.76.84-2.67.84-5.71V258H1472v35c0,4.08-.53,6.93-1.6,8.53q-2,3.12-6.75,3.12A16.06,16.06,0,0,1,1459.24,304.05Zm7.12-52.16v-6.53H1472v6.53Z"/><path d="M1503.33,280.49l5.81.72a14.12,14.12,0,0,1-5.09,7.9,15.29,15.29,0,0,1-9.5,2.82q-7.27,0-11.55-4.49t-4.26-12.58q0-8.37,4.31-13a14.59,14.59,0,0,1,11.19-4.62,14.19,14.19,0,0,1,10.87,4.53q4.22,4.53,4.22,12.75,0,.5,0,1.5h-24.75q.32,5.48,3.09,8.37a9.22,9.22,0,0,0,6.94,2.91,8.63,8.63,0,0,0,5.28-1.62A10.81,10.81,0,0,0,1503.33,280.49Zm-18.47-9.1h18.53a11.31,11.31,0,0,0-2.12-6.28,8.65,8.65,0,0,0-7-3.25,9,9,0,0,0-6.52,2.6A10.27,10.27,0,0,0,1484.86,271.39Z"/><path d="M909.63,368V322.16h5.62v26.13l13.32-13.5h7.28L923.16,347.1l14,20.88h-6.94l-11-17-4,3.81V368Z"/><path d="M963.25,363.88a21,21,0,0,1-6,3.75,17.41,17.41,0,0,1-6.21,1.1c-3.64,0-6.44-.9-8.4-2.68a8.8,8.8,0,0,1-2.94-6.82,9.23,9.23,0,0,1,4-7.69,13.69,13.69,0,0,1,4-1.85,40.67,40.67,0,0,1,5-.84,51.17,51.17,0,0,0,10-1.94c0-.77,0-1.26,0-1.47,0-2.29-.54-3.9-1.6-4.84q-2.16-1.91-6.4-1.91c-2.65,0-4.6.47-5.86,1.39a8.49,8.49,0,0,0-2.8,4.93l-5.5-.75a13.59,13.59,0,0,1,2.47-5.71,10.82,10.82,0,0,1,5-3.34,22.14,22.14,0,0,1,7.53-1.17,19.83,19.83,0,0,1,6.9,1,9.13,9.13,0,0,1,3.91,2.51,8.86,8.86,0,0,1,1.75,3.83,31.47,31.47,0,0,1,.28,5.19v7.5a79.36,79.36,0,0,0,.36,9.92,12.47,12.47,0,0,0,1.42,4h-5.87A11.93,11.93,0,0,1,963.25,363.88Zm-.47-12.56a41.25,41.25,0,0,1-9.18,2.12,21.33,21.33,0,0,0-4.91,1.13,4.92,4.92,0,0,0-2.22,1.83,5,5,0,0,0,.92,6.42,7.35,7.35,0,0,0,5,1.5,11.6,11.6,0,0,0,5.78-1.42,8.78,8.78,0,0,0,3.72-3.89,13.69,13.69,0,0,0,.9-5.63Z"/><path d="M977.19,368V334.79h5.06v4.72A11.93,11.93,0,0,1,992.82,334a13.82,13.82,0,0,1,5.51,1.08,8.68,8.68,0,0,1,3.77,2.82,11.08,11.08,0,0,1,1.75,4.16,33.25,33.25,0,0,1,.31,5.47V368h-5.63V347.79a15.1,15.1,0,0,0-.65-5.14,5.44,5.44,0,0,0-2.33-2.72,7.39,7.39,0,0,0-3.92-1,9.13,9.13,0,0,0-6.21,2.28c-1.73,1.53-2.6,4.41-2.6,8.66V368Z"/><path d="M1053.28,357.29l5.82.72a14.19,14.19,0,0,1-5.1,7.9,15.27,15.27,0,0,1-9.5,2.82q-7.27,0-11.54-4.49t-4.27-12.58q0-8.37,4.31-13a14.62,14.62,0,0,1,11.19-4.62,14.21,14.21,0,0,1,10.88,4.53q4.22,4.53,4.21,12.75,0,.49,0,1.5H1034.5q.32,5.48,3.1,8.37a9.18,9.18,0,0,0,6.93,2.91,8.64,8.64,0,0,0,5.29-1.62A10.87,10.87,0,0,0,1053.28,357.29Zm-18.46-9.1h18.53a11.23,11.23,0,0,0-2.13-6.28,8.63,8.63,0,0,0-7-3.25,8.93,8.93,0,0,0-6.51,2.6A10.23,10.23,0,0,0,1034.82,348.19Z"/><path d="M1066.16,368V334.79h5.06v4.72a11.93,11.93,0,0,1,10.56-5.47,13.87,13.87,0,0,1,5.52,1.08,8.68,8.68,0,0,1,3.77,2.82,11.08,11.08,0,0,1,1.75,4.16,33.25,33.25,0,0,1,.31,5.47V368h-5.63V347.79a15.36,15.36,0,0,0-.65-5.14,5.44,5.44,0,0,0-2.33-2.72,7.39,7.39,0,0,0-3.92-1,9.13,9.13,0,0,0-6.21,2.28c-1.74,1.53-2.61,4.41-2.61,8.66V368Z"/><path d="M1118.5,370.73l5.47.81a5.24,5.24,0,0,0,1.91,3.69,9.36,9.36,0,0,0,5.72,1.56,10.07,10.07,0,0,0,6-1.56,7.74,7.74,0,0,0,2.87-4.38,36,36,0,0,0,.41-7.22,11.57,11.57,0,0,1-9.19,4.35q-6.84,0-10.59-4.94a19,19,0,0,1-3.75-11.85,22,22,0,0,1,1.72-8.76,13.62,13.62,0,0,1,5-6.2,13.46,13.46,0,0,1,7.67-2.19,11.89,11.89,0,0,1,9.69,4.75v-4h5.19v28.69q0,7.74-1.58,11a11.52,11.52,0,0,1-5,5.11,17.33,17.33,0,0,1-8.42,1.87q-5.94,0-9.6-2.67T1118.5,370.73Zm4.66-19.94q0,6.52,2.59,9.53a8.55,8.55,0,0,0,13,0q2.63-3,2.63-9.35,0-6.11-2.71-9.19a8.36,8.36,0,0,0-6.51-3.1,8.14,8.14,0,0,0-6.38,3.05Q1123.16,344.79,1123.16,350.79Z"/><path d="M1177.85,357.29l5.81.72a14.23,14.23,0,0,1-5.09,7.9,15.29,15.29,0,0,1-9.5,2.82q-7.29,0-11.55-4.49t-4.27-12.58q0-8.37,4.32-13a14.59,14.59,0,0,1,11.18-4.62,14.19,14.19,0,0,1,10.88,4.53q4.21,4.53,4.22,12.75,0,.49,0,1.5h-24.75q.3,5.48,3.09,8.37a9.2,9.2,0,0,0,6.94,2.91,8.63,8.63,0,0,0,5.28-1.62A10.88,10.88,0,0,0,1177.85,357.29Zm-18.47-9.1h18.53a11.23,11.23,0,0,0-2.13-6.28,8.63,8.63,0,0,0-7-3.25,8.94,8.94,0,0,0-6.52,2.6A10.27,10.27,0,0,0,1159.38,348.19Z"/><path d="M1199.94,368l-12.62-33.19h5.93l7.13,19.87q1.15,3.22,2.12,6.69.75-2.62,2.1-6.31l7.37-20.25h5.78L1205.19,368Z"/><path d="M1245.44,357.29l5.81.72a14.12,14.12,0,0,1-5.09,7.9,15.29,15.29,0,0,1-9.5,2.82c-4.86,0-8.7-1.5-11.55-4.49s-4.26-7.18-4.26-12.58q0-8.37,4.31-13a14.59,14.59,0,0,1,11.19-4.62,14.19,14.19,0,0,1,10.87,4.53q4.21,4.53,4.22,12.75,0,.49,0,1.5h-24.75q.31,5.48,3.09,8.37a9.22,9.22,0,0,0,6.94,2.91,8.63,8.63,0,0,0,5.28-1.62A10.81,10.81,0,0,0,1245.44,357.29Zm-18.47-9.1h18.53a11.31,11.31,0,0,0-2.12-6.28,8.65,8.65,0,0,0-7-3.25,9,9,0,0,0-6.52,2.6A10.27,10.27,0,0,0,1227,348.19Z"/><path d="M1258.32,368V334.79h5.06v4.72a11.93,11.93,0,0,1,10.56-5.47,13.87,13.87,0,0,1,5.52,1.08,8.65,8.65,0,0,1,3.76,2.82,10.92,10.92,0,0,1,1.75,4.16,32.14,32.14,0,0,1,.31,5.47V368h-5.62V347.79a15.05,15.05,0,0,0-.66-5.14,5.35,5.35,0,0,0-2.33-2.72,7.36,7.36,0,0,0-3.92-1,9.12,9.12,0,0,0-6.2,2.28c-1.74,1.53-2.61,4.41-2.61,8.66V368Z"/><path d="M1304.53,380.85l1.07-4.78a11.39,11.39,0,0,0,2.65.44,3,3,0,0,0,2.57-1.14c.56-.76.84-2.67.84-5.71V334.79h5.62v35q0,6.12-1.59,8.53-2,3.12-6.75,3.12A16.18,16.18,0,0,1,1304.53,380.85Zm7.13-52.16v-6.53h5.62v6.53Z"/><path d="M1348.63,357.29l5.81.72a14.18,14.18,0,0,1-5.09,7.9,15.29,15.29,0,0,1-9.5,2.82q-7.29,0-11.55-4.49T1324,351.66q0-8.37,4.32-13a14.59,14.59,0,0,1,11.18-4.62,14.19,14.19,0,0,1,10.88,4.53q4.21,4.53,4.22,12.75,0,.49,0,1.5h-24.75c.2,3.65,1.24,6.44,3.09,8.37a9.2,9.2,0,0,0,6.94,2.91,8.63,8.63,0,0,0,5.28-1.62A10.88,10.88,0,0,0,1348.63,357.29Zm-18.47-9.1h18.53a11.31,11.31,0,0,0-2.12-6.28,8.66,8.66,0,0,0-7-3.25,8.94,8.94,0,0,0-6.52,2.6A10.27,10.27,0,0,0,1330.16,348.19Z"/><path d="M1376.32,368v-4.57l21.12-24.25q-3.6.19-6.34.19h-13.53v-4.56h27.12v3.72l-18,21.06-3.47,3.84c2.52-.18,4.89-.28,7.1-.28h15.34V368Z"/><path d="M1409.19,351.38q0-9.21,5.13-13.65a15.42,15.42,0,0,1,10.43-3.69,14.89,14.89,0,0,1,11.19,4.48q4.35,4.49,4.34,12.39,0,6.4-1.92,10.08a13.53,13.53,0,0,1-5.59,5.7,16.24,16.24,0,0,1-8,2,14.9,14.9,0,0,1-11.26-4.47Q1409.19,359.79,1409.19,351.38Zm5.78,0q0,6.38,2.78,9.55a8.94,8.94,0,0,0,7,3.17,8.85,8.85,0,0,0,7-3.19q2.79-3.18,2.78-9.72,0-6.15-2.79-9.32a9.27,9.27,0,0,0-14,0Q1415,345,1415,351.38Z"/><path d="M1486.19,368v-4.19a10.32,10.32,0,0,1-9.28,4.94,13,13,0,0,1-7.3-2.19,14.34,14.34,0,0,1-5.15-6.11,21.12,21.12,0,0,1-1.83-9,23.66,23.66,0,0,1,1.65-9,13.11,13.11,0,0,1,5-6.21,13.35,13.35,0,0,1,7.41-2.15,11.08,11.08,0,0,1,5.34,1.26,11.26,11.26,0,0,1,3.82,3.3V322.16h5.59V368Zm-17.78-16.57q0,6.38,2.69,9.53a8.08,8.08,0,0,0,6.34,3.16,7.94,7.94,0,0,0,6.27-3c1.71-2,2.57-5.07,2.57-9.2q0-6.81-2.62-10a8.1,8.1,0,0,0-6.47-3.19,7.82,7.82,0,0,0-6.27,3.07Q1468.42,344.82,1468.41,351.41Z"/><path d="M1523,357.29l5.81.72a14.12,14.12,0,0,1-5.09,7.9,15.29,15.29,0,0,1-9.5,2.82q-7.28,0-11.55-4.49t-4.26-12.58q0-8.37,4.31-13a14.61,14.61,0,0,1,11.19-4.62,14.17,14.17,0,0,1,10.87,4.53q4.23,4.53,4.22,12.75,0,.49,0,1.5h-24.75q.32,5.48,3.09,8.37a9.22,9.22,0,0,0,6.94,2.91,8.63,8.63,0,0,0,5.28-1.62A10.81,10.81,0,0,0,1523,357.29Zm-18.47-9.1H1523a11.23,11.23,0,0,0-2.12-6.28,8.65,8.65,0,0,0-7-3.25,9,9,0,0,0-6.52,2.6A10.27,10.27,0,0,0,1504.5,348.19Z"/><path d="M905.72,428.18q0-9.21,5.13-13.65a15.42,15.42,0,0,1,10.43-3.69,14.87,14.87,0,0,1,11.19,4.48q4.35,4.49,4.35,12.39c0,4.27-.65,7.63-1.93,10.08a13.53,13.53,0,0,1-5.59,5.7,16.24,16.24,0,0,1-8,2A14.9,14.9,0,0,1,910,441.06Q905.71,436.59,905.72,428.18Zm5.78,0q0,6.38,2.78,9.55a8.94,8.94,0,0,0,7,3.17,8.84,8.84,0,0,0,7-3.19Q931,434.53,931,428q0-6.15-2.79-9.32a9.27,9.27,0,0,0-14,0Q911.5,421.82,911.5,428.18Z"/><path d="M943.41,457.49v-45.9h5.12v4.31a12.73,12.73,0,0,1,4.1-3.8,11.27,11.27,0,0,1,5.53-1.26,13.12,13.12,0,0,1,7.5,2.19,13.38,13.38,0,0,1,4.91,6.17,22.59,22.59,0,0,1,1.65,8.73,22.11,22.11,0,0,1-1.83,9.17,13.75,13.75,0,0,1-5.31,6.25,13.61,13.61,0,0,1-7.33,2.18,10.59,10.59,0,0,1-5-1.19,11.5,11.5,0,0,1-3.68-3v16.15Zm5.09-29.12q0,6.4,2.6,9.47a8,8,0,0,0,6.28,3.06,8.14,8.14,0,0,0,6.42-3.17q2.67-3.18,2.67-9.83,0-6.34-2.61-9.5a7.87,7.87,0,0,0-6.23-3.16,8.09,8.09,0,0,0-6.36,3.36Q948.49,422,948.5,428.37Z"/><path d="M991.28,439.74l.82,5a20.45,20.45,0,0,1-4.25.5,9.54,9.54,0,0,1-4.75-1,5.39,5.39,0,0,1-2.38-2.54c-.46-1.05-.69-3.27-.69-6.64V416h-4.12v-4.37H980v-8.22l5.6-3.38v11.6h5.65V416h-5.65v19.41a10.09,10.09,0,0,0,.29,3.09,2.4,2.4,0,0,0,1,1.1,3.78,3.78,0,0,0,1.93.4A17.61,17.61,0,0,0,991.28,439.74Z"/><path d="M996.82,405.43V399h5.62v6.47Zm0,39.35V411.59h5.62v33.19Z"/><path d="M1011,444.78V411.59h5v4.65a12,12,0,0,1,4.16-3.92,11.68,11.68,0,0,1,5.91-1.48,10.91,10.91,0,0,1,6,1.53,8.14,8.14,0,0,1,3.33,4.28q3.94-5.81,10.25-5.81,4.93,0,7.6,2.73c1.77,1.83,2.65,4.63,2.65,8.42v22.79h-5.59V423.87a15.22,15.22,0,0,0-.55-4.86,4.7,4.7,0,0,0-2-2.39,6.26,6.26,0,0,0-3.38-.91,7.86,7.86,0,0,0-5.81,2.33c-1.54,1.55-2.31,4-2.31,7.45v19.29h-5.63V423.21a9.52,9.52,0,0,0-1.37-5.62,5.22,5.22,0,0,0-4.5-1.88,8.18,8.18,0,0,0-4.39,1.25,7.15,7.15,0,0,0-2.93,3.66,20.72,20.72,0,0,0-.9,6.94v17.22Z"/><path d="M1086,440.68a21,21,0,0,1-6,3.75,17.41,17.41,0,0,1-6.21,1.1c-3.64,0-6.45-.89-8.4-2.68a8.8,8.8,0,0,1-2.94-6.82,9.11,9.11,0,0,1,1.11-4.46,9.24,9.24,0,0,1,2.9-3.23,13.87,13.87,0,0,1,4-1.85,40.67,40.67,0,0,1,5-.84,51.17,51.17,0,0,0,10-1.94q0-1.15,0-1.47,0-3.44-1.59-4.84c-1.44-1.27-3.57-1.91-6.41-1.91-2.64,0-4.6.47-5.86,1.4a8.42,8.42,0,0,0-2.79,4.92l-5.5-.75a13.59,13.59,0,0,1,2.47-5.71,10.82,10.82,0,0,1,5-3.34,22.14,22.14,0,0,1,7.53-1.17,19.83,19.83,0,0,1,6.9,1,9.13,9.13,0,0,1,3.91,2.51,8.86,8.86,0,0,1,1.75,3.83,31.47,31.47,0,0,1,.28,5.19v7.5a79.36,79.36,0,0,0,.36,9.92,12.47,12.47,0,0,0,1.42,4h-5.87A11.93,11.93,0,0,1,1086,440.68Zm-.47-12.56a41.25,41.25,0,0,1-9.18,2.12,21.33,21.33,0,0,0-4.91,1.13,4.92,4.92,0,0,0-2.22,1.83,5,5,0,0,0,.92,6.42,7.35,7.35,0,0,0,5,1.5,11.6,11.6,0,0,0,5.78-1.42,8.83,8.83,0,0,0,3.72-3.89,13.69,13.69,0,0,0,.9-5.63Z"/><path d="M1099.78,444.78V399h5.63v45.82Z"/><path d="M1136.85,434.09l5.81.72a14.23,14.23,0,0,1-5.09,7.9,15.29,15.29,0,0,1-9.5,2.82q-7.29,0-11.55-4.49t-4.27-12.58q0-8.37,4.32-13a14.59,14.59,0,0,1,11.18-4.62,14.19,14.19,0,0,1,10.88,4.53q4.21,4.53,4.22,12.75,0,.5,0,1.5h-24.75q.3,5.47,3.09,8.37a9.2,9.2,0,0,0,6.94,2.91,8.63,8.63,0,0,0,5.28-1.62A10.88,10.88,0,0,0,1136.85,434.09Zm-18.47-9.1h18.53a11.23,11.23,0,0,0-2.13-6.28,8.63,8.63,0,0,0-7-3.25,8.94,8.94,0,0,0-6.52,2.6A10.27,10.27,0,0,0,1118.38,425Z"/><path d="M1165.41,428.18q0-9.21,5.12-13.65a15.46,15.46,0,0,1,10.44-3.69,14.9,14.9,0,0,1,11.19,4.48q4.33,4.49,4.34,12.39,0,6.41-1.92,10.08a13.59,13.59,0,0,1-5.59,5.7,16.24,16.24,0,0,1-8,2,14.9,14.9,0,0,1-11.26-4.47Q1165.4,436.59,1165.41,428.18Zm5.78,0q0,6.38,2.78,9.55a8.94,8.94,0,0,0,7,3.17,8.85,8.85,0,0,0,7-3.19q2.77-3.18,2.78-9.72,0-6.15-2.8-9.32a9.26,9.26,0,0,0-14,0Q1171.19,421.82,1171.19,428.18Z"/><path d="M1225.82,434.09l5.81.72a14.19,14.19,0,0,1-5.1,7.9,15.27,15.27,0,0,1-9.5,2.82q-7.27,0-11.54-4.49t-4.27-12.58q0-8.37,4.31-13a14.62,14.62,0,0,1,11.19-4.62,14.21,14.21,0,0,1,10.88,4.53q4.22,4.53,4.22,12.75c0,.33,0,.83,0,1.5H1207q.32,5.47,3.1,8.37a9.19,9.19,0,0,0,6.94,2.91,8.63,8.63,0,0,0,5.28-1.62A11,11,0,0,0,1225.82,434.09Zm-18.47-9.1h18.53a11.23,11.23,0,0,0-2.13-6.28,8.63,8.63,0,0,0-7-3.25,8.93,8.93,0,0,0-6.51,2.6A10.23,10.23,0,0,0,1207.35,425Z"/><path d="M1240,444.78V416h-5v-4.37h5v-3.53a15.3,15.3,0,0,1,.6-5,7.17,7.17,0,0,1,2.86-3.55,10.33,10.33,0,0,1,5.73-1.36,28,28,0,0,1,5.25.56l-.84,4.91a18.72,18.72,0,0,0-3.31-.31,4.94,4.94,0,0,0-3.63,1.09c-.71.73-1.06,2.1-1.06,4.1v3.06h6.47V416h-6.47v28.82Z"/><path d="M1279.19,434.09l5.81.72a14.12,14.12,0,0,1-5.09,7.9,15.29,15.29,0,0,1-9.5,2.82c-4.86,0-8.7-1.5-11.55-4.49s-4.26-7.18-4.26-12.58q0-8.37,4.31-13a14.59,14.59,0,0,1,11.19-4.62,14.19,14.19,0,0,1,10.87,4.53q4.21,4.53,4.22,12.75,0,.5,0,1.5h-24.75q.31,5.47,3.09,8.37a9.22,9.22,0,0,0,6.94,2.91,8.63,8.63,0,0,0,5.28-1.62A10.81,10.81,0,0,0,1279.19,434.09Zm-18.47-9.1h18.53a11.31,11.31,0,0,0-2.12-6.28,8.65,8.65,0,0,0-7-3.25,9,9,0,0,0-6.52,2.6A10.27,10.27,0,0,0,1260.72,425Z"/><path d="M1292.07,444.78V411.59h5.06v4.72a11.93,11.93,0,0,1,10.56-5.47,13.87,13.87,0,0,1,5.52,1.08,8.73,8.73,0,0,1,3.76,2.82,10.92,10.92,0,0,1,1.75,4.16,32.14,32.14,0,0,1,.31,5.47v20.41h-5.62V424.59a15.05,15.05,0,0,0-.66-5.14,5.35,5.35,0,0,0-2.33-2.72,7.36,7.36,0,0,0-3.92-1,9.12,9.12,0,0,0-6.2,2.28c-1.74,1.53-2.61,4.41-2.61,8.66v18.13Z"/><path d="M1325.57,428.18q0-9.21,5.12-13.65a15.42,15.42,0,0,1,10.44-3.69,14.9,14.9,0,0,1,11.19,4.48q4.34,4.49,4.34,12.39,0,6.41-1.92,10.08a13.56,13.56,0,0,1-5.6,5.7,16.2,16.2,0,0,1-8,2,14.93,14.93,0,0,1-11.27-4.47Q1325.57,436.59,1325.57,428.18Zm5.78,0q0,6.38,2.78,9.55a9.26,9.26,0,0,0,14,0q2.78-3.18,2.78-9.72,0-6.15-2.8-9.32a9.26,9.26,0,0,0-13.95,0Q1331.34,421.82,1331.35,428.18Z"/><path d="M1363.25,457.49v-45.9h5.13v4.31a12.7,12.7,0,0,1,4.09-3.8,11.3,11.3,0,0,1,5.53-1.26,13.07,13.07,0,0,1,7.5,2.19,13.38,13.38,0,0,1,4.91,6.17,22.59,22.59,0,0,1,1.66,8.73,22.11,22.11,0,0,1-1.83,9.17,13.94,13.94,0,0,1-12.64,8.43,10.61,10.61,0,0,1-5-1.19,11.46,11.46,0,0,1-3.67-3v16.15Zm5.1-29.12q0,6.4,2.59,9.47a8,8,0,0,0,6.28,3.06,8.14,8.14,0,0,0,6.42-3.17q2.67-3.18,2.68-9.83,0-6.34-2.61-9.5a7.88,7.88,0,0,0-6.24-3.16,8.12,8.12,0,0,0-6.36,3.36Q1368.35,422,1368.35,428.37Z"/><path d="M1397.82,447.53l5.46.81a5.24,5.24,0,0,0,1.91,3.69,9.38,9.38,0,0,0,5.72,1.56,10.07,10.07,0,0,0,6-1.56,7.7,7.7,0,0,0,2.88-4.38,36.31,36.31,0,0,0,.4-7.22,11.57,11.57,0,0,1-9.19,4.35q-6.84,0-10.59-4.94a19,19,0,0,1-3.75-11.85,22,22,0,0,1,1.72-8.76,13.68,13.68,0,0,1,5-6.2,13.47,13.47,0,0,1,7.68-2.19,11.88,11.88,0,0,1,9.68,4.75v-4h5.19v28.69q0,7.74-1.58,11a11.52,11.52,0,0,1-5,5.11,17.33,17.33,0,0,1-8.42,1.87q-5.94,0-9.59-2.67T1397.82,447.53Zm4.65-19.94q0,6.53,2.6,9.53a8.21,8.21,0,0,0,6.5,3,8.31,8.31,0,0,0,6.5-3q2.63-3,2.62-9.36,0-6.11-2.7-9.19a8.4,8.4,0,0,0-6.52-3.1,8.12,8.12,0,0,0-6.37,3.05Q1402.48,421.59,1402.47,427.59Z"/><path d="M1456.1,440.68a21,21,0,0,1-6,3.75,17.35,17.35,0,0,1-6.2,1.1q-5.48,0-8.41-2.68a8.8,8.8,0,0,1-2.94-6.82,9.23,9.23,0,0,1,4-7.69,13.87,13.87,0,0,1,4-1.85,40.33,40.33,0,0,1,5-.84,51.33,51.33,0,0,0,10-1.94q0-1.15,0-1.47,0-3.44-1.59-4.84-2.16-1.9-6.41-1.91-4,0-5.86,1.4t-2.8,4.92l-5.5-.75a13.71,13.71,0,0,1,2.47-5.71,10.88,10.88,0,0,1,5-3.34,22.22,22.22,0,0,1,7.53-1.17,19.89,19.89,0,0,1,6.91,1,9.09,9.09,0,0,1,3.9,2.51,8.75,8.75,0,0,1,1.75,3.83,31.15,31.15,0,0,1,.29,5.19v7.5a80.17,80.17,0,0,0,.35,9.92,12.49,12.49,0,0,0,1.43,4h-5.88A11.92,11.92,0,0,1,1456.1,440.68Zm-.47-12.56a41.37,41.37,0,0,1-9.19,2.12,21.47,21.47,0,0,0-4.91,1.13,4.94,4.94,0,0,0-2.21,1.83,4.73,4.73,0,0,0-.79,2.67,4.78,4.78,0,0,0,1.71,3.75,7.3,7.3,0,0,0,5,1.5,11.54,11.54,0,0,0,5.78-1.42,8.78,8.78,0,0,0,3.72-3.89,13.5,13.5,0,0,0,.91-5.63Z"/><path d="M1479.25,444.78l-12.62-33.19h5.94l7.12,19.87q1.15,3.23,2.13,6.69c.5-1.75,1.19-3.85,2.09-6.31l7.37-20.25h5.79l-12.57,33.19Z"/><path d="M1524.75,434.09l5.82.72a14.19,14.19,0,0,1-5.1,7.9,15.27,15.27,0,0,1-9.5,2.82q-7.28,0-11.55-4.49t-4.26-12.58q0-8.37,4.31-13a14.62,14.62,0,0,1,11.19-4.62,14.17,14.17,0,0,1,10.87,4.53q4.23,4.53,4.22,12.75,0,.5,0,1.5H1506q.32,5.47,3.1,8.37a9.18,9.18,0,0,0,6.93,2.91,8.59,8.59,0,0,0,5.28-1.62A10.81,10.81,0,0,0,1524.75,434.09Zm-18.47-9.1h18.54a11.23,11.23,0,0,0-2.13-6.28,8.63,8.63,0,0,0-7-3.25,8.93,8.93,0,0,0-6.51,2.6A10.28,10.28,0,0,0,1506.28,425Z"/><path d="M1118.8,690.56l5.72-.5a12.62,12.62,0,0,0,1.89,5.64,10.3,10.3,0,0,0,4.61,3.56,17.39,17.39,0,0,0,7,1.36,16.77,16.77,0,0,0,6.12-1,8.5,8.5,0,0,0,4-2.83,6.57,6.57,0,0,0,1.29-3.92,5.94,5.94,0,0,0-1.25-3.77,9.23,9.23,0,0,0-4.12-2.7,82.71,82.71,0,0,0-8.16-2.24,41.49,41.49,0,0,1-8.84-2.85,12.39,12.39,0,0,1-4.89-4.27,10.48,10.48,0,0,1-1.61-5.7,11.66,11.66,0,0,1,2-6.49,12.24,12.24,0,0,1,5.75-4.58,21.82,21.82,0,0,1,8.4-1.56,23,23,0,0,1,9,1.64,13,13,0,0,1,6,4.83,13.8,13.8,0,0,1,2.25,7.22l-5.81.44a9.39,9.39,0,0,0-3.17-6.57q-2.7-2.21-8-2.21-5.49,0-8,2a6,6,0,0,0-2.52,4.86,5.22,5.22,0,0,0,1.78,4.06q1.75,1.6,9.15,3.27a60.79,60.79,0,0,1,10.14,2.92,14,14,0,0,1,5.9,4.67,11.41,11.41,0,0,1,1.91,6.52,12.44,12.44,0,0,1-2.1,6.89,13.82,13.82,0,0,1-6,5,21,21,0,0,1-8.83,1.8,26.29,26.29,0,0,1-10.42-1.82,14.5,14.5,0,0,1-6.59-5.45A15.36,15.36,0,0,1,1118.8,690.56Z"/><path d="M1175.11,700.24l.81,5a20.38,20.38,0,0,1-4.25.5,9.59,9.59,0,0,1-4.75-1,5.42,5.42,0,0,1-2.37-2.54c-.46-1.05-.69-3.27-.69-6.64v-19.1h-4.12v-4.37h4.12v-8.22l5.6-3.38v11.6h5.65v4.37h-5.65v19.41a9.76,9.76,0,0,0,.29,3.09,2.35,2.35,0,0,0,1,1.1,3.76,3.76,0,0,0,1.92.4A17.61,17.61,0,0,0,1175.11,700.24Z"/><path d="M1202.27,701.18a21,21,0,0,1-6,3.75,17.32,17.32,0,0,1-6.2,1.1c-3.65,0-6.45-.9-8.41-2.68a8.79,8.79,0,0,1-2.93-6.82,9.25,9.25,0,0,1,4-7.69,13.87,13.87,0,0,1,4-1.85,40.33,40.33,0,0,1,5-.84,51.33,51.33,0,0,0,10-1.94q0-1.15,0-1.47,0-3.43-1.59-4.84-2.16-1.9-6.41-1.91c-2.65,0-4.6.47-5.86,1.39a8.55,8.55,0,0,0-2.8,4.93l-5.5-.75a13.71,13.71,0,0,1,2.47-5.71,10.93,10.93,0,0,1,5-3.34,22.22,22.22,0,0,1,7.53-1.17,19.85,19.85,0,0,1,6.91,1,9.19,9.19,0,0,1,3.91,2.51,9,9,0,0,1,1.75,3.83,32.67,32.67,0,0,1,.28,5.19v7.5a79.36,79.36,0,0,0,.36,9.92,12.47,12.47,0,0,0,1.42,4h-5.88A11.92,11.92,0,0,1,1202.27,701.18Zm-.47-12.56a41.23,41.23,0,0,1-9.19,2.12,21.22,21.22,0,0,0-4.9,1.13,4.92,4.92,0,0,0-2.22,1.83,5,5,0,0,0,.92,6.42,7.32,7.32,0,0,0,5,1.5,11.54,11.54,0,0,0,5.78-1.42,8.78,8.78,0,0,0,3.72-3.89,13.5,13.5,0,0,0,.91-5.63Z"/><path d="M1216.21,718v-45.9h5.12v4.31a12.7,12.7,0,0,1,4.09-3.8,11.34,11.34,0,0,1,5.54-1.26,13.12,13.12,0,0,1,7.5,2.19,13.36,13.36,0,0,1,4.9,6.17,22.41,22.41,0,0,1,1.66,8.73,22.15,22.15,0,0,1-1.83,9.17,13.92,13.92,0,0,1-12.64,8.43,10.61,10.61,0,0,1-5-1.19,11.46,11.46,0,0,1-3.67-3V718Zm5.09-29.12q0,6.4,2.59,9.47a8,8,0,0,0,6.28,3.06,8.16,8.16,0,0,0,6.43-3.17q2.67-3.16,2.67-9.83,0-6.35-2.61-9.5a7.88,7.88,0,0,0-6.24-3.16,8.12,8.12,0,0,0-6.35,3.36Q1221.3,682.46,1221.3,688.87Z"/><path d="M1278.8,705.28l-12.63-33.19h5.94l7.13,19.87q1.15,3.22,2.12,6.69.75-2.62,2.1-6.31l7.37-20.25h5.78l-12.56,33.19Z"/><path d="M1299.49,688.68q0-9.21,5.12-13.65a15.46,15.46,0,0,1,10.44-3.69,14.9,14.9,0,0,1,11.19,4.48q4.34,4.48,4.34,12.39,0,6.4-1.92,10.08a13.59,13.59,0,0,1-5.59,5.7,16.24,16.24,0,0,1-8,2,14.93,14.93,0,0,1-11.27-4.47Q1299.49,697.09,1299.49,688.68Zm5.78,0q0,6.38,2.78,9.55a9.26,9.26,0,0,0,14,0q2.77-3.18,2.78-9.72,0-6.15-2.8-9.32a9.26,9.26,0,0,0-14,0Q1305.28,682.32,1305.27,688.68Z"/><path d="M1335.08,688.68q0-9.21,5.13-13.65a15.42,15.42,0,0,1,10.43-3.69,14.89,14.89,0,0,1,11.19,4.48q4.35,4.48,4.34,12.39,0,6.4-1.92,10.08a13.53,13.53,0,0,1-5.59,5.7,16.24,16.24,0,0,1-8,2,14.9,14.9,0,0,1-11.26-4.47Q1335.07,697.09,1335.08,688.68Zm5.78,0q0,6.38,2.78,9.55a8.94,8.94,0,0,0,7,3.17,8.85,8.85,0,0,0,7-3.19q2.79-3.18,2.78-9.72,0-6.15-2.79-9.32a9.27,9.27,0,0,0-14,0Q1340.86,682.32,1340.86,688.68Z"/><path d="M1372.71,705.28V672.09h5.06v5a13.7,13.7,0,0,1,3.58-4.66,6.22,6.22,0,0,1,3.61-1.12,11,11,0,0,1,5.78,1.81l-1.94,5.22a8.09,8.09,0,0,0-4.13-1.22,5.37,5.37,0,0,0-3.31,1.11,6,6,0,0,0-2.09,3.08,21.76,21.76,0,0,0-.94,6.56v17.38Z"/><path d="M1409.61,695.37l5.56-.88a7.86,7.86,0,0,0,2.61,5.13,9.11,9.11,0,0,0,6,1.78c2.58,0,4.5-.52,5.75-1.58a4.7,4.7,0,0,0,1.87-3.7,3.42,3.42,0,0,0-1.65-3,24.33,24.33,0,0,0-5.75-1.91,52.17,52.17,0,0,1-8.58-2.7,8.18,8.18,0,0,1-4.86-7.61,8.52,8.52,0,0,1,1-4.11,9,9,0,0,1,2.76-3.14,11.86,11.86,0,0,1,3.58-1.64,16.94,16.94,0,0,1,4.86-.67,19.24,19.24,0,0,1,6.86,1.12,9.35,9.35,0,0,1,4.36,3,12,12,0,0,1,1.93,5.14l-5.5.75a6,6,0,0,0-2.17-4,7.94,7.94,0,0,0-5.08-1.44q-3.87,0-5.53,1.28a3.75,3.75,0,0,0-1.65,3,3.14,3.14,0,0,0,.68,2,4.88,4.88,0,0,0,2.16,1.5q.84.31,5,1.44a68.58,68.58,0,0,1,8.33,2.61,8.51,8.51,0,0,1,3.7,3,8.25,8.25,0,0,1,1.34,4.82,9.37,9.37,0,0,1-1.64,5.29,10.6,10.6,0,0,1-4.73,3.85,17.34,17.34,0,0,1-7,1.36q-6.46,0-9.86-2.69A12.52,12.52,0,0,1,1409.61,695.37Z"/><path d="M1456.14,700.24l.82,5a20.45,20.45,0,0,1-4.25.5,9.54,9.54,0,0,1-4.75-1,5.39,5.39,0,0,1-2.38-2.54c-.46-1.05-.69-3.27-.69-6.64v-19.1h-4.12v-4.37h4.12v-8.22l5.6-3.38v11.6h5.65v4.37h-5.65v19.41a10.09,10.09,0,0,0,.29,3.09,2.35,2.35,0,0,0,1,1.1,3.76,3.76,0,0,0,1.92.4A17.61,17.61,0,0,0,1456.14,700.24Z"/><path d="M1483.3,701.18a20.92,20.92,0,0,1-6,3.75,17.32,17.32,0,0,1-6.2,1.1c-3.65,0-6.45-.9-8.41-2.68a8.82,8.82,0,0,1-2.93-6.82,9.25,9.25,0,0,1,4-7.69,13.87,13.87,0,0,1,4-1.85,40.33,40.33,0,0,1,5-.84,51.33,51.33,0,0,0,10-1.94q0-1.15,0-1.47,0-3.43-1.59-4.84c-1.44-1.27-3.57-1.91-6.41-1.91-2.64,0-4.6.47-5.86,1.39a8.49,8.49,0,0,0-2.79,4.93l-5.5-.75a13.71,13.71,0,0,1,2.46-5.71,10.93,10.93,0,0,1,5-3.34,22.22,22.22,0,0,1,7.53-1.17,19.85,19.85,0,0,1,6.91,1,9.19,9.19,0,0,1,3.91,2.51,9,9,0,0,1,1.75,3.83,32.67,32.67,0,0,1,.28,5.19v7.5a79.36,79.36,0,0,0,.36,9.92,12.47,12.47,0,0,0,1.42,4h-5.88A12.15,12.15,0,0,1,1483.3,701.18Zm-.47-12.56a41.23,41.23,0,0,1-9.19,2.12,21.35,21.35,0,0,0-4.9,1.13,4.92,4.92,0,0,0-2.22,1.83,5,5,0,0,0,.92,6.42,7.34,7.34,0,0,0,5,1.5,11.61,11.61,0,0,0,5.79-1.42,8.81,8.81,0,0,0,3.71-3.89,13.5,13.5,0,0,0,.91-5.63Z"/><path d="M1497.24,718v-45.9h5.12v4.31a12.63,12.63,0,0,1,4.1-3.8,11.27,11.27,0,0,1,5.53-1.26,13.12,13.12,0,0,1,7.5,2.19,13.36,13.36,0,0,1,4.9,6.17,22.41,22.41,0,0,1,1.66,8.73,22.15,22.15,0,0,1-1.83,9.17,13.92,13.92,0,0,1-12.64,8.43,10.63,10.63,0,0,1-5-1.19,11.46,11.46,0,0,1-3.67-3V718Zm5.09-29.12q0,6.4,2.59,9.47a8,8,0,0,0,6.29,3.06,8.14,8.14,0,0,0,6.42-3.17q2.67-3.16,2.67-9.83,0-6.35-2.61-9.5a7.87,7.87,0,0,0-6.23-3.16,8.12,8.12,0,0,0-6.36,3.36Q1502.33,682.46,1502.33,688.87Z"/><path d="M1107.53,782.08h-5.21V736.26h5.62v16.35a11.14,11.14,0,0,1,9.09-4.47,14,14,0,0,1,5.8,1.23,12,12,0,0,1,4.5,3.47,16.83,16.83,0,0,1,2.77,5.39,22.49,22.49,0,0,1,1,6.75q0,8.53-4.22,13.19a13.22,13.22,0,0,1-10.13,4.66,10.58,10.58,0,0,1-9.22-4.91Zm-.06-16.85q0,6,1.63,8.63,2.65,4.33,7.18,4.34a8.11,8.11,0,0,0,6.38-3.2q2.68-3.21,2.69-9.55,0-6.5-2.58-9.59a7.84,7.84,0,0,0-6.24-3.1,8.08,8.08,0,0,0-6.37,3.21Q1107.47,759.17,1107.47,765.23Z"/><path d="M1160.66,771.39l5.81.72a14.18,14.18,0,0,1-5.09,7.9,15.29,15.29,0,0,1-9.5,2.82q-7.29,0-11.55-4.49t-4.26-12.58q0-8.37,4.31-13a14.59,14.59,0,0,1,11.19-4.62,14.19,14.19,0,0,1,10.87,4.53q4.21,4.53,4.22,12.75,0,.5,0,1.5h-24.75q.31,5.48,3.09,8.37a9.22,9.22,0,0,0,6.94,2.91,8.63,8.63,0,0,0,5.28-1.62A10.88,10.88,0,0,0,1160.66,771.39Zm-18.47-9.1h18.53a11.31,11.31,0,0,0-2.12-6.28,8.66,8.66,0,0,0-7-3.25,8.94,8.94,0,0,0-6.52,2.6A10.27,10.27,0,0,0,1142.19,762.29Z"/><path d="M1173.47,782.08V748.89h5.06v5a14,14,0,0,1,3.58-4.66,6.26,6.26,0,0,1,3.61-1.12,10.94,10.94,0,0,1,5.78,1.81l-1.93,5.22a8.09,8.09,0,0,0-4.13-1.22,5.35,5.35,0,0,0-3.31,1.11,6.05,6.05,0,0,0-2.1,3.08,22.08,22.08,0,0,0-.93,6.56v17.38Z"/><path d="M1217.57,771.39l5.81.72a14.19,14.19,0,0,1-5.1,7.9,15.27,15.27,0,0,1-9.5,2.82q-7.27,0-11.54-4.49T1193,765.76q0-8.37,4.31-13a14.62,14.62,0,0,1,11.19-4.62,14.21,14.21,0,0,1,10.88,4.53q4.22,4.53,4.22,12.75c0,.33,0,.83,0,1.5h-24.75q.32,5.48,3.1,8.37a9.19,9.19,0,0,0,6.94,2.91,8.63,8.63,0,0,0,5.28-1.62A11,11,0,0,0,1217.57,771.39Zm-18.47-9.1h18.53a11.23,11.23,0,0,0-2.13-6.28,8.63,8.63,0,0,0-7-3.25,8.93,8.93,0,0,0-6.51,2.6A10.23,10.23,0,0,0,1199.1,762.29Z"/><path d="M1230.47,742.73v-6.47h5.63v6.47Zm0,39.35V748.89h5.63v33.19Z"/><path d="M1244.69,782.08V736.26h5.63v26.13l13.31-13.5h7.28l-12.69,12.31,14,20.88h-6.94l-11-17-4,3.81v13.16Z"/><path d="M1287.28,795l1.07-4.78a11.39,11.39,0,0,0,2.65.44,3,3,0,0,0,2.57-1.14c.56-.76.84-2.67.84-5.71V748.89H1300v35q0,6.12-1.59,8.53-2,3.12-6.75,3.12A16.18,16.18,0,0,1,1287.28,795Zm7.13-52.16v-6.53H1300v6.53Z"/><path d="M1331.38,771.39l5.81.72a14.18,14.18,0,0,1-5.09,7.9,15.29,15.29,0,0,1-9.5,2.82q-7.29,0-11.55-4.49t-4.27-12.58q0-8.37,4.32-13a14.59,14.59,0,0,1,11.18-4.62,14.19,14.19,0,0,1,10.88,4.53q4.21,4.53,4.22,12.75,0,.5,0,1.5H1312.6c.2,3.65,1.24,6.44,3.09,8.37a9.2,9.2,0,0,0,6.94,2.91,8.63,8.63,0,0,0,5.28-1.62A10.88,10.88,0,0,0,1331.38,771.39Zm-18.47-9.1h18.53a11.31,11.31,0,0,0-2.12-6.28,8.66,8.66,0,0,0-7-3.25,8.94,8.94,0,0,0-6.52,2.6A10.27,10.27,0,0,0,1312.91,762.29Z"/><path d="M1354.88,795l1.06-4.78a11.46,11.46,0,0,0,2.66.44,3,3,0,0,0,2.56-1.14c.56-.76.84-2.67.84-5.71V748.89h5.63v35q0,6.12-1.6,8.53-2,3.12-6.75,3.12A16.06,16.06,0,0,1,1354.88,795Zm7.12-52.16v-6.53h5.63v6.53Z"/><path d="M1399,771.39l5.81.72a14.12,14.12,0,0,1-5.09,7.9,15.29,15.29,0,0,1-9.5,2.82q-7.28,0-11.55-4.49t-4.26-12.58q0-8.37,4.31-13a14.61,14.61,0,0,1,11.19-4.62,14.17,14.17,0,0,1,10.87,4.53q4.23,4.53,4.22,12.75,0,.5,0,1.5h-24.75q.32,5.48,3.09,8.37a9.22,9.22,0,0,0,6.94,2.91,8.63,8.63,0,0,0,5.28-1.62A10.81,10.81,0,0,0,1399,771.39Zm-18.47-9.1H1399a11.23,11.23,0,0,0-2.12-6.28,8.65,8.65,0,0,0-7-3.25,9,9,0,0,0-6.52,2.6A10.27,10.27,0,0,0,1380.5,762.29Z"/><path d="M1451.16,782.08v-4.19a10.34,10.34,0,0,1-9.28,4.94,13,13,0,0,1-7.3-2.19,14.43,14.43,0,0,1-5.16-6.11,21.27,21.27,0,0,1-1.82-9,23.66,23.66,0,0,1,1.65-9,13.11,13.11,0,0,1,5-6.21,13.35,13.35,0,0,1,7.41-2.15,11.08,11.08,0,0,1,5.34,1.26,11.32,11.32,0,0,1,3.81,3.3V736.26h5.6v45.82Zm-17.78-16.57q0,6.38,2.69,9.53a8.08,8.08,0,0,0,6.34,3.16,7.93,7.93,0,0,0,6.26-3c1.72-2,2.58-5.08,2.58-9.21q0-6.81-2.62-10a8.1,8.1,0,0,0-6.47-3.19,7.82,7.82,0,0,0-6.27,3.07Q1433.39,758.92,1433.38,765.51Z"/><path d="M1463.13,765.48q0-9.21,5.12-13.65a15.46,15.46,0,0,1,10.44-3.69,14.9,14.9,0,0,1,11.19,4.48q4.33,4.49,4.34,12.39,0,6.4-1.92,10.08a13.59,13.59,0,0,1-5.59,5.7,16.24,16.24,0,0,1-8,2,14.93,14.93,0,0,1-11.27-4.47Q1463.13,773.89,1463.13,765.48Zm5.78,0q0,6.38,2.78,9.55a9.26,9.26,0,0,0,14,0q2.77-3.18,2.78-9.72,0-6.15-2.8-9.32a9.26,9.26,0,0,0-14,0Q1468.92,759.1,1468.91,765.48Z"/><path d="M1523.53,771.39l5.82.72a14.19,14.19,0,0,1-5.1,7.9,15.27,15.27,0,0,1-9.5,2.82q-7.27,0-11.54-4.49t-4.27-12.58q0-8.37,4.31-13a14.62,14.62,0,0,1,11.19-4.62,14.21,14.21,0,0,1,10.88,4.53q4.22,4.53,4.21,12.75,0,.5,0,1.5h-24.75q.32,5.48,3.1,8.37a9.18,9.18,0,0,0,6.93,2.91,8.64,8.64,0,0,0,5.29-1.62A10.87,10.87,0,0,0,1523.53,771.39Zm-18.46-9.1h18.53a11.23,11.23,0,0,0-2.13-6.28,8.63,8.63,0,0,0-7-3.25,8.93,8.93,0,0,0-6.51,2.6A10.23,10.23,0,0,0,1505.07,762.29Z"/><path d="M1536.28,782.08V736.26h5.63v45.82Z"/></svg>