<?xml version="1.0" encoding="utf-8"?>
<!-- Generator: Adobe Illustrator 27.1.1, SVG Export Plug-In . SVG Version: 6.00 Build 0)  -->
<svg version="1.1" id="Layer_1" xmlns="http://www.w3.org/2000/svg" xmlns:xlink="http://www.w3.org/1999/xlink" x="0px" y="0px"
	 viewBox="0 0 320 320" style="enable-background:new 0 0 320 320;" xml:space="preserve">
<style type="text/css">
	.st0{fill:#422814;}
	.st1{fill:#0D8042;}
</style>
<g>
	<polygon class="st0" points="95.1,169.23 119.89,194.02 256.85,194.02 232.06,169.23 	"/>
	<polygon class="st1" points="70.31,125.98 95.1,150.78 232.06,150.78 207.27,125.98 	"/>
	<path class="st1" d="M0,109L0,109c0,46.95,38.06,85.02,85.02,85.02h24.45l-23.54-23.54v-8.61v-9.57l-26.31-26.31V92.02h230.15
		V23.99H85.02C38.06,23.99,0,62.05,0,109z"/>
	<path class="st0" d="M234.98,125.98h-17.03l24.79,24.79v18.72l24.76,24.76v33.72H11.94v68.03h223.05
		c46.95,0,85.02-38.06,85.02-85.02v0C320,164.05,281.94,125.98,234.98,125.98z"/>
</g>
</svg>
