<svg version="1.1" id="Layer_1" xmlns="http://www.w3.org/2000/svg" xmlns:xlink="http://www.w3.org/1999/xlink" x="0px" y="0px"
	 viewBox="0 0 841.89 595.28" style="enable-background:new 0 0 841.89 595.28;" xml:space="preserve">
<style type="text/css">
	.st0{fill:#422916;}
	.st1{fill:#0D703C;}
</style>
<g>
	<polygon class="st0" points="353.16,307.6 379.04,333.48 522.01,333.48 496.13,307.6 	"/>
	<polygon class="st1" points="327.28,262.46 353.16,288.34 496.13,288.34 470.26,262.46 	"/>
	<path class="st1" d="M253.89,244.74L253.89,244.74c0,49.01,39.73,88.75,88.75,88.75h25.53l-24.58-24.58v-8.99v-9.99l-27.46-27.46
		v-35.46h240.26v-71.02H342.64C293.62,155.99,253.89,195.72,253.89,244.74z"/>
	<path class="st0" d="M499.19,262.46h-17.78l25.88,25.88v19.54l25.85,25.85v35.2h-266.8v71.02h232.85
		c49.01,0,88.75-39.73,88.75-88.75v0C587.94,302.2,548.21,262.46,499.19,262.46z"/>
</g>
</svg>