<?xml version="1.0" standalone="no"?>
<!DOCTYPE svg PUBLIC "-//W3C//DTD SVG 20010904//EN"
 "http://www.w3.org/TR/2001/REC-SVG-20010904/DTD/svg10.dtd">
<svg version="1.0" xmlns="http://www.w3.org/2000/svg"
 width="1080.000000pt" height="1080.000000pt" viewBox="0 0 1080.000000 1080.000000"
 preserveAspectRatio="xMidYMid meet">
<metadata>
Created by potrace 1.11, written by Peter Selinger 2001-2013
</metadata>
<g transform="translate(0.000000,1080.000000) scale(0.100000,-0.100000)"
fill="#000000" stroke="none">
<path d="M5777 10694 c-1 -1 -42 -4 -92 -7 -49 -3 -101 -8 -115 -11 -14 -3
-43 -7 -64 -11 -57 -8 -180 -40 -271 -71 -239 -80 -439 -209 -547 -353 -23
-31 -45 -60 -49 -64 -3 -5 -49 14 -100 41 -143 75 -327 139 -479 168 -187 34
-387 12 -535 -62 -66 -32 -165 -107 -165 -124 0 -4 30 -20 68 -35 94 -39 433
-213 517 -265 186 -114 326 -216 429 -310 126 -114 137 -128 89 -115 -16 4
-44 9 -63 12 -19 3 -96 20 -170 39 -74 19 -142 36 -150 38 -8 2 -71 21 -140
41 -69 20 -132 38 -140 40 -8 2 -100 29 -205 60 -104 31 -197 58 -205 60 -8 1
-69 17 -135 34 -66 17 -129 33 -140 35 -11 2 -50 11 -88 20 -37 9 -82 18 -100
21 -17 3 -59 10 -92 16 -113 20 -256 33 -355 32 -104 -1 -391 -13 -440 -18
-113 -12 -245 -27 -264 -31 -11 -2 -37 -7 -56 -10 -201 -31 -485 -154 -660
-285 -202 -151 -417 -402 -561 -656 -36 -63 -163 -315 -184 -363 -10 -25 -26
-63 -35 -85 -20 -46 -32 -76 -36 -90 -2 -5 -24 -71 -50 -145 -59 -174 -115
-422 -138 -610 -32 -264 -24 -615 20 -875 26 -150 41 -224 78 -375 60 -242
110 -362 250 -595 94 -158 302 -453 438 -620 121 -149 338 -400 458 -530 96
-103 473 -480 560 -559 41 -37 89 -80 105 -95 17 -15 80 -69 140 -120 350
-297 483 -419 710 -646 226 -226 258 -259 381 -405 241 -286 400 -545 455
-745 48 -172 16 -452 -81 -702 -49 -127 -64 -163 -124 -283 -187 -374 -485
-757 -794 -1018 l-73 -62 1324 0 1324 0 56 133 c30 72 63 152 72 177 10 25 23
59 30 75 20 47 121 350 150 450 36 129 210 462 308 590 113 148 275 235 487
260 30 3 71 8 90 10 45 5 133 13 240 20 47 3 101 8 120 10 19 2 69 7 110 10
41 4 86 8 100 10 14 3 52 7 85 10 33 3 69 7 80 9 11 2 45 7 75 11 30 3 66 8
80 10 14 2 45 7 70 10 25 3 81 12 125 20 44 8 97 16 117 19 20 2 45 7 55 10
10 2 35 7 55 10 20 3 101 20 180 36 79 17 154 34 168 36 14 3 45 10 70 15 25
6 52 12 60 14 8 2 53 13 100 25 47 12 95 24 107 26 12 2 33 8 45 13 13 5 25 8
28 8 17 -1 319 106 405 143 11 5 40 18 65 28 251 108 711 331 950 461 41 22
82 44 90 47 8 4 63 34 123 68 74 42 107 65 107 78 0 17 -11 23 -34 19 -12 -3
-131 -29 -206 -47 -36 -8 -72 -17 -80 -19 -8 -1 -67 -15 -130 -30 -63 -14
-122 -28 -130 -30 -38 -9 -79 -17 -280 -60 -118 -25 -227 -49 -242 -54 -16 -5
-28 -6 -28 -1 0 15 221 296 314 400 165 181 332 339 481 452 210 159 531 343
803 459 74 32 102 49 102 61 0 10 -3 18 -7 18 -5 0 -35 5 -68 10 -214 35 -603
33 -835 -5 -147 -24 -148 -24 -229 -46 -326 -87 -618 -242 -810 -431 -74 -72
-166 -200 -177 -245 -4 -12 -7 -23 -8 -23 -1 0 -35 11 -76 24 -111 36 -232 64
-350 82 -115 17 -342 24 -405 13 -22 -4 -60 -10 -85 -14 -24 -4 -52 -11 -62
-16 -10 -5 -18 -8 -18 -5 0 7 -142 -50 -185 -75 -77 -44 -215 -165 -215 -188
0 -5 100 -32 241 -66 125 -29 522 -165 644 -221 33 -15 62 -28 65 -29 18 -3
211 -108 303 -164 107 -66 123 -83 82 -88 -11 -2 -49 -7 -85 -13 -79 -12 -150
-18 -295 -26 -60 -3 -135 -7 -165 -9 -30 -3 -102 -7 -160 -10 -58 -4 -123 -8
-145 -10 -278 -26 -1008 -27 -1165 -1 -14 2 -52 7 -85 11 -32 4 -67 8 -75 10
-9 2 -50 6 -91 10 -41 3 -85 8 -99 10 -14 2 -52 6 -85 10 -114 11 -288 32
-330 39 -202 34 -334 75 -477 146 -164 82 -321 190 -543 376 -101 84 -203 173
-279 244 -72 67 -70 65 -186 170 -620 557 -885 900 -940 1216 -20 111 -9 254
25 339 45 114 150 244 226 279 10 5 19 13 19 18 0 4 4 8 9 8 5 0 35 15 68 33
78 44 267 128 377 166 103 37 299 87 371 96 28 4 57 8 65 10 8 2 42 7 75 10
33 3 78 8 100 10 70 8 167 15 290 20 66 3 152 8 190 10 39 3 108 7 155 10 47
3 101 8 120 10 19 3 67 7 105 10 39 3 84 7 100 9 17 2 55 7 86 10 31 4 65 8
75 10 11 2 44 7 74 12 30 4 57 8 60 9 6 1 101 16 115 17 8 1 58 14 240 61 169
45 486 188 710 322 127 76 334 214 406 271 20 16 51 40 69 54 178 133 490 420
486 448 -4 27 -23 25 -124 -11 -177 -65 -493 -171 -604 -204 -25 -7 -22 4 10
42 15 18 41 50 57 71 169 215 352 403 515 529 219 170 450 296 780 427 25 10
24 10 -15 24 -44 15 -168 42 -230 50 -22 3 -51 8 -65 11 -47 9 -395 11 -460 2
-198 -27 -349 -73 -512 -154 -135 -68 -212 -120 -305 -208 -70 -67 -173 -206
-173 -234 0 -18 -12 -16 -72 11 -111 50 -266 97 -361 111 -21 3 -54 7 -74 10
-182 27 -398 -27 -524 -132 -55 -46 -102 -104 -92 -113 5 -4 44 -19 87 -34
149 -52 422 -176 561 -255 45 -26 200 -126 218 -141 7 -6 52 -43 101 -82 l90
-72 -45 -14 c-68 -20 -271 -73 -299 -78 -14 -3 -38 -9 -55 -14 -26 -8 -86 -20
-165 -35 -14 -2 -45 -9 -70 -15 -70 -15 -268 -49 -334 -56 -33 -3 -67 -7 -76
-9 -10 -2 -53 -6 -96 -10 -43 -4 -90 -8 -104 -10 -14 -2 -77 -7 -140 -10 -63
-3 -149 -8 -190 -10 -76 -5 -350 -11 -825 -20 -143 -3 -294 -7 -335 -9 -126
-7 -265 -18 -270 -21 -3 -2 -29 -6 -57 -10 -29 -3 -117 -20 -195 -36 -79 -16
-154 -32 -168 -35 -14 -3 -90 -21 -170 -40 -179 -44 -179 -44 -210 -50 -14 -3
-51 -12 -83 -20 -32 -8 -77 -19 -100 -23 -23 -5 -86 -18 -141 -30 -113 -24
-132 -28 -195 -37 -25 -4 -55 -9 -66 -11 -11 -3 -90 -6 -175 -8 -140 -2 -261
8 -355 30 -185 44 -357 155 -491 320 -170 206 -369 655 -420 945 -3 14 -7 32
-9 40 -25 90 -26 423 -1 545 71 342 218 664 411 895 134 160 306 300 470 383
68 34 215 85 273 94 89 15 372 9 526 -12 17 -2 54 -7 81 -10 88 -11 119 -16
145 -20 14 -3 45 -7 70 -10 25 -3 90 -13 145 -21 55 -8 118 -17 140 -20 22 -3
47 -7 55 -9 8 -2 78 -14 155 -25 77 -12 151 -23 165 -25 352 -55 635 -73 810
-53 36 4 88 10 115 13 103 11 307 62 380 95 11 5 62 27 113 49 155 67 316 164
579 347 40 28 54 56 34 69 -5 3 -70 -10 -143 -29 -138 -37 -356 -83 -430 -91
-24 -3 -67 -9 -95 -14 -65 -10 -67 -14 72 123 125 123 271 254 350 314 33 25
62 49 65 53 11 13 199 139 283 188 100 58 250 131 381 186 91 37 390 139 436
149 56 12 141 34 145 38 11 10 -306 102 -420 122 -69 12 -181 27 -248 32 -76
6 -265 12 -270 8z"/>
</g>
</svg>
