<?xml version="1.0" standalone="no"?>
<!DOCTYPE svg PUBLIC "-//W3C//DTD SVG 20010904//EN"
 "http://www.w3.org/TR/2001/REC-SVG-20010904/DTD/svg10.dtd">
<svg version="1.0" xmlns="http://www.w3.org/2000/svg"
 width="700.000000pt" height="700.000000pt" viewBox="0 0 700.000000 700.000000"
 preserveAspectRatio="xMidYMid meet">
<metadata>
Created by potrace 1.14, written by Peter Selinger 2001-2017
</metadata>
<g transform="translate(0.000000,700.000000) scale(0.100000,-0.100000)"
fill="#000000" stroke="none">
<path d="M1745 6472 c-314 -21 -638 -129 -900 -299 -55 -36 -102 -68 -105 -72
-3 -3 -37 -32 -77 -64 -344 -279 -589 -727 -648 -1187 -13 -104 -13 -386 0
-480 68 -486 329 -935 717 -1231 278 -213 596 -337 963 -375 72 -8 674 -13
688 -6 4 2 -107 118 -248 259 l-255 255 0 198 0 197 -288 289 -288 289 0 370
1 370 2480 2 c1364 1 2497 2 2518 2 l37 1 0 743 0 742 -2278 0 c-1252 0 -2295
-1 -2317 -3z"/>
<path d="M1543 4243 c1 -2 123 -124 270 -272 l268 -269 1495 0 c875 0 1492 4
1488 9 -3 5 -124 127 -268 271 l-264 262 -1495 1 c-822 0 -1495 -1 -1494 -2z"/>
<path d="M4776 4242 c-2 -1 118 -123 265 -270 l269 -267 0 -206 0 -206 270
-269 270 -269 0 -371 0 -370 -2782 1 c-1531 0 -2789 -1 -2795 -3 -10 -3 -13
-161 -13 -746 l0 -741 2523 1 c1387 1 2536 4 2552 7 17 3 64 11 105 17 694
108 1283 628 1484 1310 14 47 27 96 30 110 3 14 7 36 11 50 3 14 8 43 10 65 3
22 9 67 14 100 12 82 6 383 -8 475 -65 397 -245 755 -519 1029 -125 124 -154
149 -287 239 -140 95 -391 214 -495 237 -8 2 -49 12 -90 23 -162 43 -290 55
-588 56 -123 1 -225 0 -226 -2z"/>
<path d="M2353 3026 l272 -271 1490 1 c820 1 1492 2 1495 3 3 0 -116 122 -264
270 l-269 269 -1498 0 -1499 0 273 -272z"/>
</g>
</svg>
